<svg xmlns="http://www.w3.org/2000/svg" viewBox="0 0 100 100">
  <defs>
    <linearGradient id="roseGradient" x1="0%" y1="0%" x2="100%" y2="100%">
      <stop offset="0%" stop-color="#e91e63" />
      <stop offset="100%" stop-color="#c2185b" />
    </linearGradient>
    <linearGradient id="blueGradient" x1="0%" y1="0%" x2="100%" y2="100%">
      <stop offset="0%" stop-color="#2196f3" />
      <stop offset="100%" stop-color="#1976d2" />
    </linearGradient>
  </defs>
  
  <!-- Background circle -->
  <circle cx="50" cy="50" r="45" fill="url(#blueGradient)" opacity="0.1"/>
  
  <!-- Rose icon -->
  <g transform="translate(50, 50)">
    <!-- Main rose petals -->
    <path d="M-12,-8 Q-16,-12 -12,-16 Q-8,-20 -4,-16 Q0,-12 -4,-8 Q-8,-4 -12,-8 Z" fill="url(#roseGradient)"/>
    <path d="M-4,-8 Q0,-12 4,-8 Q8,-4 4,0 Q0,4 -4,0 Q-8,-4 -4,-8 Z" fill="url(#roseGradient)" opacity="0.9"/>
    <path d="M4,-4 Q12,-8 16,-4 Q12,0 8,4 Q4,0 0,0 Q0,-2 4,-4 Z" fill="url(#roseGradient)" opacity="0.8"/>
    
    <!-- Rose center -->
    <circle cx="0" cy="-2" r="2.5" fill="#c2185b"/>
    
    <!-- Stem -->
    <rect x="-0.8" y="6" width="1.6" height="12" fill="#4caf50"/>
    
    <!-- Leaves -->
    <ellipse cx="-5" cy="12" rx="3" ry="1.5" fill="#4caf50" transform="rotate(-25)"/>
    <ellipse cx="5" cy="14" rx="3" ry="1.5" fill="#4caf50" transform="rotate(25)"/>
  </g>
</svg>

